<svg width="405" height="405" viewBox="0 0 405 405" fill="none" xmlns="http://www.w3.org/2000/svg">
<rect width="405" height="405" fill="black"/>
<path d="M107.676 223.953C100.319 223.953 93.6458 222.195 87.6562 218.68C81.7318 215.164 77.0443 210.314 73.5938 204.129C70.2083 197.879 68.5156 190.913 68.5156 183.23V173.953C68.5156 173.432 68.776 173.172 69.2969 173.172H91.9531C92.474 173.172 92.7344 173.53 92.7344 174.246V183.23C92.7344 188.113 94.1341 192.117 96.9336 195.242C99.7331 198.302 103.314 199.832 107.676 199.832C111.712 199.832 115.195 198.172 118.125 194.852C121.055 191.466 122.52 187.592 122.52 183.23V83.8164C122.52 83.2956 122.78 83.0352 123.301 83.0352H145.762C146.283 83.0352 146.543 83.3607 146.543 84.0117L146.738 183.23C146.738 190.522 144.98 197.26 141.465 203.445C137.884 209.695 133.164 214.676 127.305 218.387C121.445 222.098 114.902 223.953 107.676 223.953ZM198.789 223.953C191.693 223.953 185.15 222.13 179.16 218.484C173.236 214.839 168.451 209.988 164.805 203.934C161.224 197.814 159.434 191.108 159.434 183.816L159.629 120.438C159.629 113.016 161.419 106.342 165 100.418C168.516 94.4284 173.268 89.6432 179.258 86.0625C185.247 82.4167 191.758 80.5938 198.789 80.5938C206.081 80.5938 212.624 82.3841 218.418 85.9648C224.277 89.5456 228.965 94.3633 232.48 100.418C236.061 106.408 237.852 113.081 237.852 120.438L238.047 183.816C238.047 191.108 236.289 197.781 232.773 203.836C229.193 209.956 224.44 214.839 218.516 218.484C212.591 222.13 206.016 223.953 198.789 223.953ZM198.789 199.832C202.826 199.832 206.341 198.204 209.336 194.949C212.331 191.629 213.828 187.918 213.828 183.816L213.633 120.438C213.633 116.01 212.233 112.267 209.434 109.207C206.634 106.147 203.086 104.617 198.789 104.617C194.688 104.617 191.172 106.115 188.242 109.109C185.312 112.104 183.848 115.88 183.848 120.438V183.816C183.848 188.178 185.312 191.954 188.242 195.145C191.172 198.27 194.688 199.832 198.789 199.832ZM289.805 222H253.965C253.444 222 253.184 221.674 253.184 221.023L253.574 83.6211C253.574 83.1003 253.835 82.8398 254.355 82.8398H292.832C300.319 82.8398 307.122 84.6628 313.242 88.3086C319.232 91.9544 323.952 96.8047 327.402 102.859C330.853 108.849 332.578 115.359 332.578 122.391C332.578 128.12 331.276 133.458 328.672 138.406C326.068 143.354 322.975 147.358 319.395 150.418C323.236 154.259 326.23 158.719 328.379 163.797C330.527 168.875 331.602 174.214 331.602 179.812C331.602 187.56 329.746 194.624 326.035 201.004C322.259 207.384 317.214 212.495 310.898 216.336C304.583 220.112 297.552 222 289.805 222ZM292.832 106.57H277.598V138.016H292.832C297.454 138.016 301.198 136.388 304.062 133.133C306.927 129.812 308.359 126.232 308.359 122.391C308.359 118.159 306.829 114.48 303.77 111.355C300.71 108.165 297.064 106.57 292.832 106.57ZM289.805 162.234H277.598L277.402 197.586H289.805C294.622 197.586 298.757 195.828 302.207 192.312C305.658 188.797 307.383 184.63 307.383 179.812C307.383 174.995 305.658 170.861 302.207 167.41C298.757 163.96 294.622 162.234 289.805 162.234Z" fill="white"/>
<path d="M87.6699 313H55.3457C55.0853 313 54.9551 312.837 54.9551 312.512L55.0527 243.908C55.0527 243.583 55.2155 243.42 55.541 243.42H66.6738C66.9993 243.42 67.1621 243.583 67.1621 243.908L67.0645 300.695H87.6699C87.9954 300.695 88.1582 300.858 88.1582 301.184V312.512C88.1582 312.837 87.9954 313 87.6699 313ZM106.518 313H95.1895C94.8639 313 94.7012 312.837 94.7012 312.512L94.7988 243.811C94.7988 243.55 94.929 243.42 95.1895 243.42H106.42C106.68 243.42 106.811 243.55 106.811 243.811L106.908 312.512C106.908 312.837 106.778 313 106.518 313ZM132.689 313.977C129.141 313.977 125.87 313.065 122.875 311.242C119.913 309.419 117.536 306.994 115.746 303.967C113.988 300.907 113.109 297.554 113.109 293.908V289.318C113.109 288.96 113.272 288.781 113.598 288.781H124.828C125.089 288.781 125.219 288.96 125.219 289.318V293.908C125.219 296.089 125.951 297.977 127.416 299.572C128.881 301.135 130.639 301.916 132.689 301.916C134.773 301.916 136.547 301.118 138.012 299.523C139.477 297.896 140.209 296.024 140.209 293.908C140.209 291.467 138.614 289.335 135.424 287.512C134.903 287.186 134.219 286.796 133.373 286.34C132.559 285.852 131.583 285.298 130.443 284.68C129.304 284.061 128.197 283.459 127.123 282.873C126.049 282.255 125.007 281.669 123.998 281.115C120.352 278.967 117.634 276.281 115.844 273.059C114.086 269.803 113.207 266.158 113.207 262.121C113.207 258.41 114.118 255.057 115.941 252.062C117.764 249.1 120.141 246.757 123.07 245.031C126.033 243.273 129.239 242.395 132.689 242.395C136.238 242.395 139.493 243.273 142.455 245.031C145.417 246.822 147.777 249.198 149.535 252.16C151.326 255.122 152.221 258.443 152.221 262.121V270.324C152.221 270.585 152.09 270.715 151.83 270.715H140.6C140.339 270.715 140.209 270.585 140.209 270.324L140.111 262.121C140.111 259.777 139.379 257.873 137.914 256.408C136.449 254.943 134.708 254.211 132.689 254.211C130.639 254.211 128.881 254.992 127.416 256.555C125.951 258.117 125.219 259.973 125.219 262.121C125.219 264.302 125.674 266.125 126.586 267.59C127.53 269.055 129.239 270.454 131.713 271.789C131.973 271.919 132.576 272.245 133.52 272.766C134.464 273.286 135.505 273.872 136.645 274.523C137.816 275.142 138.874 275.712 139.818 276.232C140.762 276.721 141.332 277.014 141.527 277.111C144.848 278.967 147.468 281.245 149.389 283.947C151.342 286.649 152.318 289.969 152.318 293.908C152.318 297.717 151.439 301.135 149.682 304.162C147.891 307.189 145.515 309.582 142.553 311.34C139.59 313.098 136.303 313.977 132.689 313.977ZM180.59 313H169.311C169.018 313 168.871 312.837 168.871 312.512V255.48H155.883C155.557 255.48 155.395 255.318 155.395 254.992L155.492 243.811C155.492 243.55 155.622 243.42 155.883 243.42H193.871C194.229 243.42 194.408 243.55 194.408 243.811V254.992C194.408 255.318 194.278 255.48 194.018 255.48H180.883L180.98 312.512C180.98 312.837 180.85 313 180.59 313ZM211.107 313H199.779C199.454 313 199.291 312.837 199.291 312.512L199.389 243.811C199.389 243.55 199.519 243.42 199.779 243.42H211.01C211.27 243.42 211.4 243.55 211.4 243.811L211.498 312.512C211.498 312.837 211.368 313 211.107 313ZM231.176 313H221.166C220.645 313 220.385 312.772 220.385 312.316L220.287 244.201C220.287 243.68 220.548 243.42 221.068 243.42H230.102L246.996 282.824L246.508 244.201C246.508 243.68 246.801 243.42 247.387 243.42H257.299C257.689 243.42 257.885 243.68 257.885 244.201L257.982 312.414C257.982 312.805 257.82 313 257.494 313H248.705L231.371 276.184L232.104 312.219C232.104 312.74 231.794 313 231.176 313ZM284.984 313.977C281.371 313.977 278.116 313.081 275.219 311.291C272.289 309.501 269.929 307.092 268.139 304.064C266.381 301.037 265.502 297.652 265.502 293.908V262.219C265.502 258.573 266.397 255.253 268.188 252.258C269.945 249.23 272.305 246.822 275.268 245.031C278.23 243.208 281.469 242.297 284.984 242.297C288.663 242.297 291.983 243.176 294.945 244.934C297.908 246.724 300.251 249.117 301.977 252.111C303.734 255.106 304.613 258.475 304.613 262.219V266.809C304.613 267.069 304.451 267.199 304.125 267.199H292.895C292.634 267.199 292.504 267.069 292.504 266.809V263C292.504 260.461 291.788 258.361 290.355 256.701C288.923 255.041 287.133 254.211 284.984 254.211C283.064 254.211 281.355 255.008 279.857 256.604C278.36 258.199 277.611 260.07 277.611 262.219V293.908C277.611 296.089 278.344 297.977 279.809 299.572C281.273 301.135 282.999 301.916 284.984 301.916C287.133 301.916 288.923 301.151 290.355 299.621C291.788 298.059 292.504 296.154 292.504 293.908V288.977H285.521C285.163 288.977 284.984 288.814 284.984 288.488V277.307C284.984 276.981 285.163 276.818 285.521 276.818H304.223C304.483 276.818 304.613 276.981 304.613 277.307V293.908C304.613 297.652 303.734 301.037 301.977 304.064C300.186 307.092 297.826 309.501 294.896 311.291C291.967 313.081 288.663 313.977 284.984 313.977ZM328.686 313.977C325.137 313.977 321.866 313.065 318.871 311.242C315.909 309.419 313.533 306.994 311.742 303.967C309.984 300.907 309.105 297.554 309.105 293.908V289.318C309.105 288.96 309.268 288.781 309.594 288.781H320.824C321.085 288.781 321.215 288.96 321.215 289.318V293.908C321.215 296.089 321.947 297.977 323.412 299.572C324.877 301.135 326.635 301.916 328.686 301.916C330.769 301.916 332.543 301.118 334.008 299.523C335.473 297.896 336.205 296.024 336.205 293.908C336.205 291.467 334.61 289.335 331.42 287.512C330.899 287.186 330.215 286.796 329.369 286.34C328.555 285.852 327.579 285.298 326.439 284.68C325.3 284.061 324.193 283.459 323.119 282.873C322.045 282.255 321.003 281.669 319.994 281.115C316.348 278.967 313.63 276.281 311.84 273.059C310.082 269.803 309.203 266.158 309.203 262.121C309.203 258.41 310.115 255.057 311.938 252.062C313.76 249.1 316.137 246.757 319.066 245.031C322.029 243.273 325.235 242.395 328.686 242.395C332.234 242.395 335.489 243.273 338.451 245.031C341.413 246.822 343.773 249.198 345.531 252.16C347.322 255.122 348.217 258.443 348.217 262.121V270.324C348.217 270.585 348.087 270.715 347.826 270.715H336.596C336.335 270.715 336.205 270.585 336.205 270.324L336.107 262.121C336.107 259.777 335.375 257.873 333.91 256.408C332.445 254.943 330.704 254.211 328.686 254.211C326.635 254.211 324.877 254.992 323.412 256.555C321.947 258.117 321.215 259.973 321.215 262.121C321.215 264.302 321.671 266.125 322.582 267.59C323.526 269.055 325.235 270.454 327.709 271.789C327.969 271.919 328.572 272.245 329.516 272.766C330.46 273.286 331.501 273.872 332.641 274.523C333.812 275.142 334.87 275.712 335.814 276.232C336.758 276.721 337.328 277.014 337.523 277.111C340.844 278.967 343.464 281.245 345.385 283.947C347.338 286.649 348.314 289.969 348.314 293.908C348.314 297.717 347.436 301.135 345.678 304.162C343.887 307.189 341.511 309.582 338.549 311.34C335.587 313.098 332.299 313.977 328.686 313.977Z" fill="white"/>
</svg>
